<svg width="24" height="24" viewBox="0 0 24 24" fill="none" xmlns="http://www.w3.org/2000/svg">
<path d="M7 21H5V20C5.00441 16.1358 8.13583 13.0044 12 13C15.8642 13.0044 18.9956 16.1358 19 20V21H17V20C16.9967 17.2399 14.7601 15.0033 12 15C9.23995 15.0033 7.00331 17.2399 7 20V21ZM12 12C9.23858 12 7 9.76142 7 7C7 4.23858 9.23858 2 12 2C14.7614 2 17 4.23858 17 7C16.9967 9.76005 14.7601 11.9967 12 12ZM12 4C10.3431 4 9 5.34315 9 7C9 8.65685 10.3431 10 12 10C13.6569 10 15 8.65685 15 7C15 5.34315 13.6569 4 12 4Z" fill="#A5A5A8"/>
<path d="M20 6.99999C20 5.94531 19.4558 5.01775 18.6328 4.48282C18.2774 4.25185 18 3.88733 18 3.46352V3.32339C18 2.69117 18.587 2.21487 19.1571 2.48797C20.8387 3.29335 22 5.01105 22 6.99999C21.9976 8.98717 20.8375 10.703 19.1579 11.5094C18.5876 11.7832 18 11.3069 18 10.6742V10.5365C18 10.1126 18.2774 9.74813 18.6328 9.51715C19.4558 8.98223 20 8.05467 20 6.99999Z" fill="#A5A5A8"/>
<path d="M24 20C24 20.5523 23.5523 21 23 21C22.4477 21 22 20.5523 22 20C21.9974 17.8682 20.6626 16.0487 18.7833 15.3292C18.3394 15.1593 18 14.7598 18 14.2845V14.2263C18 13.6173 18.5438 13.1451 19.1241 13.3302C21.9496 14.2316 23.9964 16.8764 24 20Z" fill="#A5A5A8"/>
<path d="M4 6.89998C4 5.8453 4.54425 4.91774 5.36721 4.38282C5.72256 4.15184 6 3.78733 6 3.36351V3.22338C6 2.59117 5.41304 2.11487 4.84285 2.38796C3.16131 3.19334 2 4.91104 2 6.89998C2.00238 8.88716 3.16246 10.603 4.84206 11.4094C5.41236 11.6832 6 11.2069 6 10.5742V10.4365C6 10.0126 5.72256 9.64812 5.36721 9.41715C4.54425 8.88223 4 7.95466 4 6.89998Z" fill="#A5A5A8"/>
<path d="M0 19.9C0 20.4523 0.447715 20.9 1 20.9C1.55228 20.9 2 20.4523 2 19.9C2.00255 17.7682 3.33743 15.9486 5.21674 15.2292C5.66056 15.0593 6 14.6598 6 14.1845V14.1263C6 13.5173 5.45616 13.0451 4.87595 13.2302C2.05044 14.1315 0.00356388 16.7764 0 19.9Z" fill="#A5A5A8"/>
</svg>
